<svg width="40" height="40" viewBox="0 0 40 40" fill="none" xmlns="http://www.w3.org/2000/svg"><path d="M26.8995 3.5606C26.8195 4.0606 26.7795 4.5606 26.7795 5.0606c0 4.5 3.64 8.138 8.12000000000001 8.138C35.3995 13.1986 35.8795 13.1406 36.3795 13.0606v16.138c0 6.782-4 10.802-10.8 10.802H10.8015c-6.80199.0-10.801988281-4.02-10.801988281-10.802V14.4006c0-6.8 3.999998281-10.84 10.801988281-10.84h16.098zM27.3015 15.7206C26.7595 15.6606 26.2215 15.9006 25.8995 16.3406l-4.838 6.26-5.542-4.36C15.1795 17.9806 14.7795 17.8786 14.3795 17.9206 13.9815 17.9806 13.6215 18.1986 13.3795 18.5186l-5.91799 7.702-.122.18c-.34.637999999999998-.18 1.458.42 1.9C8.03951 28.4806 8.33951 28.6006 8.67951 28.6006 9.14151 28.6206 9.57951 28.3786 9.85951 28.0006l5.01999-6.462 5.7 4.282L20.7595 25.9386C21.3995 26.2786 22.1995 26.1206 22.6595 25.5186l5.78-7.458L28.3595 18.1006c.32-.440000000000001.379999999999999-1 .16-1.5C28.3015 16.1006 27.8195 15.7606 27.3015 15.7206zM35.1797.0c2.66.0 4.82 2.16 4.82 4.82s-2.16 4.82-4.82 4.82c-2.66.0-4.82-2.16-4.82-4.82S32.5197.0 35.1797.0z" fill="#f0899c"/></svg>