<svg width="40" height="40" viewBox="0 0 40 40" fill="none" xmlns="http://www.w3.org/2000/svg"><path d="M29.3389 976562e-9c6.802.0 10.642 3.858003438 10.662 10.660023438v18.68c0 6.8-3.86 10.66-10.662 10.66H10.6609c-6.80205.0-10.660045508-3.86-10.660045508-10.66V10.661C854492e-9 3.85898 3.85885 976562e-9 10.6609 976562e-9h18.678zM21.0009 8.26098c-.562000000000001-.34-1.242-.34-1.78.0C18.6789 8.59898 18.3809 9.22098 18.4389 9.84098V30.221c.102.859999999999999.82 1.5 1.66 1.5C20.9609 31.721 21.6789 31.081 21.7589 30.221V9.84098C21.8389 9.22098 21.5409 8.59898 21.0009 8.26098zm-9.34 6.56002c-.539999999999999-.34-1.222-.34-1.76005.0-.542.34-.84.958-.779999999999999 1.58v13.82C9.19885 31.081 9.91885 31.721 10.7789 31.721c.862.0 1.58-.640000000000001 1.66-1.5V16.401C12.5009 15.779 12.1989 15.161 11.6609 14.821zm18.518 7.26c-.538-.34-1.218-.34-1.778.0C27.8589 22.421 27.5609 23.019 27.6409 23.661v6.56C27.7209 31.081 28.4389 31.721 29.3009 31.721c.84.0 1.558-.640000000000001 1.66-1.5v-6.56C31.0189 23.019 30.7209 22.421 30.1789 22.081z" fill="#f0899c"/></svg>