<svg width="40" height="40" viewBox="0 0 40 40" fill="none" xmlns="http://www.w3.org/2000/svg"><path d="M13.9121 5.919C14.8924 5.73552 15.8752 6.22496 16.3029 7.10958 16.4094 7.2701 16.4946 7.44327 16.5565 7.62491 16.8282 11.8186 17.118 15.9412 17.3896 20.0638 17.3835 20.4923 17.4508 20.9188 17.5889 21.3254 17.9139 22.1255 18.7227 22.6331 19.5993 22.5871L32.9116 21.7342 33.0022 21.7697 33.2452 21.7872C33.7264 21.8488 34.1751 22.0684 34.5157 22.4141 34.9131 22.8173 35.131 23.359 35.1216 23.9198 34.5967 31.564 28.9923 37.951 21.3655 39.5965c-7.6267 1.6454-15.44515-1.8456-19.18994-8.5687C1.07443 29.0914.378605 26.9588.128908 24.755.0320627 24.102-.0103392 23.4423.00212397 22.7826.0273648 14.6541 5.81455 7.63813 13.9121 5.919zM21.8271.0016498C30.9687.27531 38.6087 6.9116 39.9934 15.7813 40.0022 15.8342 40.0022 15.8882 39.9934 15.9412L39.9909 16.1916C39.9609 16.5226 39.825 16.8383 39.5993 17.0917 39.3171 17.4085 38.918 17.602 38.4901 17.6293l-15.359 1.0129L22.8781 18.6472C22.4589 18.6268 22.0569 18.4637 21.7437 18.1818 21.3679 17.8436 21.1549 17.3656 21.1569 16.8652L20.1245 1.77863V1.52986C20.1433 1.10555 20.3334.706006 20.6528.419325 20.9721.132645 21.3946-.0176264 21.8271.0016498z" fill="#f0899c"/></svg>