<svg width="40" height="39" viewBox="0 0 40 39" fill="none" xmlns="http://www.w3.org/2000/svg"><path d="M12.5595.00128589c1.26.03831931 2.48.25831911 3.662.66031911H16.3395C16.4195.699605 16.4795.741605 16.5195.779605c.442.142.859999999999999.302005 1.26.522005L18.5395 1.64161c.300000000000001.16.66.458.859999999999999.58C19.5995 2.33961 19.8195 2.46161 19.9995 2.59961c2.222-1.698005 4.92-2.6180048 7.7-2.59832411 1.262.0 2.522.17831911 3.72.58031911 7.382 2.400005 10.042 10.499995 7.82 17.579995-1.26 3.618-3.32 6.92-6.018 9.618-3.862 3.74-8.1 7.06-12.662 9.92L20.0595 38.0016 19.5395 37.6796c-4.578-2.84-8.84-6.16-12.73796-9.92-2.68-2.698-4.742-5.98-6.021995-9.598C-1.48046 11.0816 1.17955 2.98161 8.64155.539605c.58-.2 1.17799-.34 1.77795-.418h.24C11.2215.0396052 11.7795.00128589 12.3395.00128589H12.5595zM30.3795 6.32161c-.82-.282-1.72.16-2.02 1-.280000000000001.83999.16 1.75999 1 2.058C30.6415 9.8596 31.4995 11.1216 31.4995 12.5196V12.5816C31.4615 13.0396 31.5995 13.4816 31.8795 13.8216s.700000000000003.538 1.14.58c.82-.0220000000000002 1.52-.68 1.58-1.522v-.238C34.6595 9.8396 32.9615 7.30161 30.3795 6.32161z" fill="#f0899c"/></svg>