<svg width="65" height="65" viewBox="0 0 65 65" fill="none" xmlns="http://www.w3.org/2000/svg"><circle opacity=".1" cx="32.536" cy="32.4463" r="32" fill="#f0899c"/><path d="M39.0554 23.1861C38.0518 22.2812 36.8664 21.6011 35.5787 21.1915 34.2909 20.7818 32.9305 20.6521 31.5885 20.8108 29.563 21.0421 27.6645 21.9152 26.1704 23.3023c-1.494 1.3872-2.5053 3.2157-2.8861 5.2186C22.9035 30.5237 23.1731 32.5958 24.0539 34.4345 24.9346 36.2731 26.3802 37.782 28.1795 38.7406v5.6349C28.1798 44.6737 28.2984 44.9597 28.5093 45.1706S29.0062 45.5002 29.3045 45.5005h1.125v1.125C30.4298 46.9237 30.5484 47.2097 30.7593 47.4206S31.2562 47.7502 31.5545 47.7505h2.25C34.1028 47.7502 34.3887 47.6315 34.5997 47.4206 34.8106 47.2097 34.9292 46.9237 34.9295 46.6255v-1.125h1.125C36.3528 45.5002 36.6387 45.3815 36.8497 45.1706 37.0606 44.9597 37.1792 44.6737 37.1795 44.3755V38.7408C38.5371 38.0178 39.7001 36.9776 40.5695 35.7087s1.4196-2.729 1.6038-4.2561C42.3575 29.9255 42.1702 28.3765 41.6274 26.9373 41.0845 25.4981 40.2022 24.2112 39.0554 23.1861zM36.0545 41.0005v1.125h-6.75v-1.125h6.75zM33.8053 46.6255H31.5545v-1.125h2.2503L33.8053 46.6255zM34.367 44.3755H29.3045v-1.125h6.75v1.125H34.367zm2.0033-6.4844C36.2756 37.9372 36.1957 38.0091 36.1399 38.0984 36.0841 38.1878 36.0545 38.291 36.0545 38.3964v1.4791H33.242V37.2959l1.5227-1.5228C34.8671 35.6671 34.9238 35.525 34.9226 35.3775 34.9213 35.23 34.8621 35.0889 34.7578 34.9846 34.6535 34.8803 34.5124 34.8212 34.365 34.8199 34.2175 34.8186 34.0754 34.8753 33.9693 34.9778l-1.2898 1.2897-1.2898-1.2897C31.2836 34.8753 31.1415 34.8186 30.994 34.8199 30.8465 34.8212 30.7054 34.8803 30.6011 34.9846 30.4969 35.0889 30.4377 35.23 30.4364 35.3775S30.4918 35.6671 30.5943 35.7731l1.5227 1.5228v2.5796H29.3045V38.3964C29.3045 38.291 29.2749 38.1878 29.2191 38.0984 29.1632 38.0091 29.0834 37.9372 28.9886 37.8911 27.3466 37.0936 26.0077 35.7848 25.1732 34.1613 24.3386 32.5378 24.0535 30.6873 24.3606 28.8879 24.6677 27.0885 25.5504 25.4373 26.8762 24.1825s3.0229-2.0455 4.8365-2.2532C32.0376 21.893 32.3642 21.8747 32.691 21.8746 34.7645 21.8684 36.7659 22.6348 38.305 24.0242c1.0318.9221 1.8206 2.0841 2.2969 3.3832C41.0782 28.7066 41.2273 30.1031 41.0361 31.4736 40.8449 32.844 40.3192 34.1464 39.5055 35.2655 38.6918 36.3847 37.615 37.2864 36.3703 37.8909V37.8911z" fill="#f0899c"/><path d="M32.6794 19.625C32.8286 19.625 32.9717 19.5657 33.0772 19.4602 33.1827 19.3548 33.2419 19.2117 33.2419 19.0625v-2.25C33.2419 16.6633 33.1827 16.5202 33.0772 16.4148 32.9717 16.3093 32.8286 16.25 32.6794 16.25 32.5303 16.25 32.3872 16.3093 32.2817 16.4148c-.105499999999999.1054-.1648.2485-.1648.3977v2.25C32.1169 19.2117 32.1762 19.3548 32.2817 19.4602 32.3872 19.5657 32.5303 19.625 32.6794 19.625z" fill="#f0899c"/><path d="M24.3268 22.7555C24.3787 22.8092 24.4407 22.852 24.5094 22.8815 24.578 22.911 24.6518 22.9265 24.7265 22.9272 24.8012 22.9278 24.8752 22.9136 24.9444 22.8853 25.0135 22.857 25.0763 22.8152 25.1291 22.7624 25.1819 22.7096 25.2237 22.6468 25.252 22.5777 25.2803 22.5085 25.2945 22.4345 25.2939 22.3598 25.2932 22.2851 25.2777 22.2113 25.2482 22.1427 25.2187 22.074 25.1759 22.012 25.1222 21.9601L23.5311 20.369C23.4792 20.3153 23.4171 20.2724 23.3485 20.2429 23.2799 20.2135 23.206 20.1979 23.1314 20.1973 23.0567 20.1966 22.9826 20.2109 22.9135 20.2392 22.8443 20.2674 22.7815 20.3092 22.7287 20.362 22.6759 20.4148 22.6341 20.4776 22.6059 20.5468 22.5776 20.6159 22.5633 20.69 22.564 20.7647 22.5646 20.8393 22.5802 20.9132 22.6096 20.9818 22.6391 21.0504 22.682 21.1125 22.7357 21.1644l1.5911 1.5911z" fill="#f0899c"/><path d="M21.4294 29.75h-2.25C19.0303 29.75 18.8872 29.8093 18.7817 29.9148c-.105499999999999.1054-.1648.2485-.1648.3977S18.6762 30.6048 18.7817 30.7102C18.8872 30.8157 19.0303 30.875 19.1794 30.875h2.25C21.5786 30.875 21.7217 30.8157 21.8272 30.7102c.105499999999999-.1054.1647-.2485.1647-.3977S21.9327 30.0202 21.8272 29.9148C21.7217 29.8093 21.5786 29.75 21.4294 29.75z" fill="#f0899c"/><path d="M24.3268 37.8698l-1.5911 1.5911C22.682 39.5128 22.6391 39.5749 22.6096 39.6435 22.5802 39.7121 22.5646 39.7859 22.564 39.8606 22.5633 39.9353 22.5776 40.0094 22.6059 40.0785 22.6341 40.1476 22.6759 40.2104 22.7287 40.2632 22.7815 40.3161 22.8443 40.3578 22.9135 40.3861 22.9826 40.4144 23.0567 40.4286 23.1314 40.428 23.206 40.4273 23.2799 40.4118 23.3485 40.3823 23.4171 40.3529 23.4792 40.31 23.5311 40.2563l1.5911-1.5911C25.2246 38.5591 25.2813 38.417 25.28 38.2695S25.2196 37.981 25.1153 37.8767C25.011 37.7724 24.8699 37.7132 24.7224 37.7119 24.575 37.7107 24.4329 37.7674 24.3268 37.8698z" fill="#f0899c"/><path d="M41.8278 20.369l-1.5911 1.5911C40.1829 22.012 40.1401 22.074 40.1106 22.1427 40.0811 22.2113 40.0656 22.2851 40.065 22.3598 40.0643 22.4345 40.0785 22.5085 40.1068 22.5777 40.1351 22.6468 40.1769 22.7096 40.2297 22.7624S40.3453 22.857 40.4144 22.8853C40.4836 22.9136 40.5576 22.9278 40.6323 22.9272 40.707 22.9265 40.7808 22.911 40.8495 22.8815 40.9181 22.852 40.9802 22.8092 41.032 22.7555l1.5911-1.5911C42.6769 21.1125 42.7197 21.0504 42.7492 20.9818S42.7942 20.8393 42.7948 20.7647C42.7955 20.69 42.7813 20.6159 42.753 20.5468 42.7247 20.4776 42.6829 20.4148 42.6301 20.362 42.5773 20.3092 42.5145 20.2674 42.4454 20.2392 42.3762 20.2109 42.3022 20.1966 42.2275 20.1973 42.1528 20.1979 42.079 20.2135 42.0103 20.2429 41.9417 20.2724 41.8796 20.3153 41.8278 20.369z" fill="#f0899c"/><path d="M41.032 37.8698C40.9259 37.7674 40.7838 37.7107 40.6363 37.7119 40.4889 37.7132 40.3478 37.7724 40.2435 37.8767 40.1392 37.981 40.08 38.122 40.0788 38.2695 40.0775 38.417 40.1342 38.5591 40.2366 38.6652l1.5911 1.5911C41.9338 40.3587 42.0759 40.4154 42.2234 40.4142 42.3709 40.4129 42.512 40.3537 42.6162 40.2494 42.7205 40.1451 42.7797 40.0041 42.781 39.8566S42.7256 39.567 42.6231 39.4609L41.032 37.8698z" fill="#f0899c"/><path d="M46.1794 29.75h-2.25C43.7803 29.75 43.6372 29.8093 43.5317 29.9148c-.105499999999999.1054-.1648.2485-.1648.3977S43.4262 30.6048 43.5317 30.7102C43.6372 30.8157 43.7803 30.875 43.9294 30.875h2.25C46.3286 30.875 46.4717 30.8157 46.5772 30.7102 46.6827 30.6048 46.7419 30.4617 46.7419 30.3125S46.6827 30.0202 46.5772 29.9148C46.4717 29.8093 46.3286 29.75 46.1794 29.75z" fill="#f0899c"/></svg>