<svg width="40" height="40" viewBox="0 0 40 40" fill="none" xmlns="http://www.w3.org/2000/svg"><path d="M39.6198 21.6305C39.7639 21.7115 39.7927 21.8832 39.7985 21.9487L39.7999 21.9748l-.1601 10.329c0 4.1203-3.1924 7.4802-7.2123 7.6862L32.036 40H7.94397C3.87319 40 .553558 36.7688.350057 32.7001L.34017 32.3038.2001 21.9748S.2001 21.7317.38019 21.6305C.54027 21.5292.74037 21.6507.76038 21.671c4.04202 2.7139 8.90445 4.5164 14.00702 5.2658C15.4877 27.038 16.2081 26.5722 16.4082 25.8431 16.8209 24.2862 18.0954 23.2276 19.6545 23.1014L19.97 23.0887H20.03c1.7009.0 3.1216 1.0937 3.5618 2.7544C23.7919 26.5722 24.5123 27.038 25.2326 26.9368 30.3352 26.1874 35.1976 24.3849 39.2396 21.671 39.2396 21.671 39.2796 21.6507 39.3197 21.6305 39.3997 21.59 39.5198 21.5697 39.6198 21.6305zM19.99 25.9849C19.238 25.9849 18.6036 26.5635 18.5031 27.2995L18.4892 27.5039v2.6126c0 .8506.680399999999999 1.519 1.5008 1.519C20.7604 31.6355 21.3794 31.0739 21.4773 30.3251L21.4907 30.1165V27.5039C21.4907 26.6735 20.8304 25.9849 19.99 25.9849zM22.5713.0c3.0015.0 5.4627 2.2886 5.8429 5.22529h3.962C36.5783 5.22529 40 8.68856 40 12.9417c0 0-.120100000000001 1.8005-.1601 4.3078C39.8359 17.448 39.7399 17.6424 39.5818 17.7599 38.6193 18.4708 37.7389 19.0581 37.6588 19.0986c-3.3216 2.2279-7.1816 3.7955-11.2936 4.5752C26.097 23.7265 25.8329 23.5867 25.6968 23.3477c-1.1525-1.9969-3.3056-3.2972-5.7068-3.2972-2.3852.0-4.5583 1.2861-5.7449 3.2851C14.1071 23.5705 13.8469 23.7062 13.5808 23.6556 9.50275 22.8738 5.64282 21.3082 2.34117 19.1189L.42021 17.7822C.26013 17.6809.16008 17.4986.16008 17.2961.10005 16.2632.0 12.9417.0 12.9417.0 8.68856 3.42171 5.22529 7.62381 5.22529H11.5658C11.946 2.2886 14.4072.0 17.4087.0h5.1626zm0 3.03796H17.4087c-1.3407.0-2.4812.93164-2.8014 2.18733H25.3727c-.3202-1.25569-1.4607-2.18733-2.8014-2.18733z" fill="#f0899c"/></svg>